PathFileType	4	(X/Y/Z)	./resultDataOpenSim/trcMotMarkerGrf/sub09/qtm-12-05.trc
DataRate	CameraRate	NumFrames	NumMarkers	Units	OrigDataRate	OrigDataStartFrame	OrigNumFrames
250.000000	250.000000	13	24	m	250.000000	414	473
Frame#	Time	L.Toe.Tip			R.Toe.Tip			L.Ankle.Lat			R.Ankle.Lat			L.Ankle.Med			R.Ankle.Med			L.Heel			R.Heel			L.Knee.Lat			R.Knee.Lat			L.Knee.Med			R.Knee.Med			L.Thigh.Upper			R.Thigh.Upper			L.ASIS			R.ASIS			V.Sacral			L.Acromium			R.Acromium			C7			L.Elbow			R.Elbow			L.Wrist.Lat			R.Wrist.Lat
		X1	Y1	Z1	X2	Y2	Z2	X3	Y3	Z3	X4	Y4	Z4	X5	Y5	Z5	X6	Y6	Z6	X7	Y7	Z7	X8	Y8	Z8	X9	Y9	Z9	X10	Y10	Z10	X11	Y11	Z11	X12	Y12	Z12	X13	Y13	Z13	X14	Y14	Z14	X15	Y15	Z15	X16	Y16	Z16	X17	Y17	Z17	X18	Y18	Z18	X19	Y19	Z19	X20	Y20	Z20	X21	Y21	Z21	X22	Y22	Z22	X23	Y23	Z23	X24	Y24	Z24

414	1.652	1.740758	0.10161539	-0.098557137	1.0325817	0.039631938	0.041231987	1.5881898	0.078219762	-0.12409288	0.90344076	0.10253482	0.083787978	1.6122792	0.10685022	-0.032075544	0.92834971	0.13662927	-0.0087479739	1.5394867	0.021068016	-0.070601929	0.83208805	0.11004098	0.031280434	1.4667611	0.48078449	-0.15829751	1.1767604	0.48085911	0.13942483	1.4806436	0.4789758	-0.033807057	1.1596854	0.47369857	0.013974105	1.2765124	0.8542569	-0.19096269	1.2478856	0.87803497	0.18097667	1.3487161	0.948581	-0.13195703	1.3501154	0.95884775	0.11102123	1.1785974	0.99782335	-0.017737352	1.3024887	1.4009928	-0.1949453	1.3087427	1.4183747	0.13734674	1.2374076	1.4579294	-0.025202603	1.147594	1.065391	-0.23496617	1.1960777	1.0667072	0.23960213	1.2459473	0.82920497	-0.29572945	1.4089266	0.88421659	0.23929519
415	1.656	1.7446718	0.094893589	-0.096738039	1.0329183	0.039818502	0.041385176	1.5911497	0.076925651	-0.12329411	0.90492889	0.10489257	0.084291497	1.6154329	0.10519508	-0.031193652	0.93068185	0.13850458	-0.0082644931	1.5404507	0.021836788	-0.070105055	0.83394525	0.11346159	0.031627171	1.4738314	0.48028147	-0.15874935	1.182994	0.47963179	0.13978646	1.4879921	0.47869474	-0.034264187	1.1668709	0.47232207	0.014709199	1.2828657	0.85351715	-0.19143764	1.2540697	0.87671269	0.18024789	1.355369	0.9480159	-0.13241468	1.3564882	0.95770068	0.11057756	1.184998	0.99681075	-0.018400012	1.3081214	1.4001436	-0.1954618	1.314129	1.4172826	0.13685389	1.2428283	1.4568887	-0.025736271	1.1536746	1.0643103	-0.23560911	1.2016305	1.0655521	0.238597	1.2523466	0.82824499	-0.29636504	1.4139954	0.88285305	0.23914859
416	1.66	1.7487423	0.088248469	-0.094898796	1.0332924	0.040012488	0.041568715	1.5940947	0.076104691	-0.12274923	0.90648249	0.10734753	0.08478759	1.6187505	0.10383055	-0.030539668	0.93319	0.1404461	-0.0077545029	1.5415167	0.02303308	-0.069830098	0.83596569	0.11704777	0.0319634	1.4807932	0.47990297	-0.15925211	1.1895487	0.47841196	0.14014568	1.4951493	0.47835848	-0.034632829	1.1737868	0.47072313	0.015075037	1.2896292	0.85280616	-0.19206723	1.2603072	0.87535486	0.17947759	1.3619695	0.94753427	-0.13281424	1.3629235	0.95656996	0.11013825	1.191358	0.99593916	-0.019080095	1.3137678	1.3993452	-0.19599611	1.3195163	1.4162386	0.13636869	1.2482892	1.4559573	-0.026283741	1.1597854	1.0632452	-0.23624983	1.2074104	1.0644232	0.23750394	1.2587959	0.82732699	-0.29698715	1.4190117	0.88147921	0.2390002
417	1.664	1.7526542	0.082302681	-0.093146356	1.0337007	0.040199449	0.041808097	1.5970336	0.07559075	-0.12254017	0.9081072	0.10988337	0.085272074	1.6219775	0.10264529	-0.030157247	0.93586389	0.1424551	-0.0072007137	1.5427155	0.024330217	-0.069955061	0.83818972	0.12080382	0.032299885	1.4878002	0.47980637	-0.1597587	1.1963394	0.47718278	0.14048147	1.5021752	0.47811279	-0.034920163	1.1806871	0.46897893	0.015155585	1.2968542	0.85218856	-0.19294554	1.2666197	0.87398427	0.17867793	1.3685079	0.94714143	-0.13318694	1.3694042	0.95546703	0.10970007	1.1976848	0.99520064	-0.019750147	1.3194314	1.3985908	-0.1965542	1.3248985	1.4152616	0.13590662	1.2538025	1.4551642	-0.026845857	1.165936	1.0622049	-0.23688472	1.2133036	1.0633345	0.23639546	1.2652907	0.82644756	-0.29759803	1.4239602	0.88009882	0.2388543
418	1.668	1.7561217	0.077303536	-0.091566683	1.0341405	0.04038111	0.042121536	1.5999657	0.075205995	-0.12265163	0.90982962	0.11252924	0.085757007	1.6249054	0.1015974	-0.030024855	0.93870931	0.14453335	-0.0065907462	1.5440144	0.025495011	-0.07048338	0.84064298	0.12474378	0.032665328	1.4950458	0.48013186	-0.16024968	1.2033233	0.47595669	0.1407685	1.5091297	0.47812883	-0.035181564	1.1878173	0.46717607	0.015104859	1.3044995	0.85173338	-0.19407247	1.2730192	0.87261447	0.17786566	1.374978	0.94684644	-0.13355823	1.3759144	0.95440467	0.10925396	1.2039927	0.99457242	-0.020377091	1.3251095	1.3978869	-0.19713815	1.3302702	1.4143648	0.13547353	1.2593568	1.4545123	-0.027421176	1.1721306	1.0611977	-0.23751774	1.2191587	1.062311	0.23535477	1.271829	0.82560808	-0.29820073	1.4288294	0.87871628	0.23870955
419	1.672	1.7590282	0.073066159	-0.090179567	1.0346258	0.040581068	0.042503423	1.602872	0.074857752	-0.12300156	0.91175051	0.11533808	0.086257339	1.6275041	0.10070771	-0.03010752	0.94174719	0.14668875	-0.0059164582	1.5453474	0.026471939	-0.071247292	0.84334352	0.12888433	0.033077331	1.5026768	0.48093254	-0.1607014	1.210512	0.47474847	0.14098096	1.5160193	0.47851485	-0.035482072	1.1953018	0.46536807	0.015091793	1.3123732	0.851501	-0.19530361	1.2794908	0.87125397	0.17705697	1.3813821	0.94667941	-0.1339356	1.3824347	0.95339252	0.10879494	1.2102847	0.99403767	-0.020942376	1.3307961	1.3972521	-0.19774296	1.3356408	1.4135516	0.13506358	1.2649348	1.4539751	-0.028011903	1.1783696	1.0602321	-0.23815871	1.2249027	1.0613698	0.23438097	1.2784134	0.82482044	-0.29879358	1.4336151	0.8773395	0.2385626
420	1.676	1.7614274	0.069216466	-0.088943645	1.0351838	0.040826752	0.042931578	1.605697	0.074537577	-0.12349835	0.91397563	0.11836313	0.086772654	1.6298676	0.099983318	-0.030375639	0.94500273	0.14893192	-0.0051755784	1.5466502	0.027328195	-0.072047633	0.84631671	0.13323322	0.033521899	1.5107057	0.48213644	-0.16107726	1.2179039	0.47355017	0.14110789	1.5227564	0.47923559	-0.035870064	1.2031449	0.46357782	0.015222758	1.3201887	0.85152712	-0.19642071	1.2860135	0.86991328	0.17626268	1.3877366	0.9466794	-0.13431784	1.3889384	0.95243854	0.10832624	1.2165531	0.99358506	-0.02143764	1.3364918	1.3967038	-0.19835704	1.3410275	1.4128301	0.13466123	1.2705295	1.4535257	-0.028625526	1.1846551	1.0593278	-0.23880915	1.2305382	1.0605205	0.23340845	1.2850473	0.82410109	-0.29936962	1.4383189	0.87598327	0.23841147
421	1.68	1.7634698	0.065442788	-0.087794642	1.0358289	0.041123682	0.043360174	1.6083684	0.074254155	-0.12407785	0.91653227	0.12161743	0.087301001	1.6320606	0.099364082	-0.030780844	0.94849716	0.15126584	-0.0043732504	1.5478855	0.028144685	-0.072790623	0.84959402	0.13778744	0.033960964	1.5189853	0.48357142	-0.16136065	1.2254117	0.47235488	0.14117585	1.5291811	0.48010597	-0.03637444	1.21129	0.46181484	0.015502196	1.3277584	0.85181597	-0.19730819	1.2925695	0.86860088	0.17548947	1.394063	0.94686763	-0.13470738	1.3954021	0.95155066	0.10784629	1.2227913	0.99319976	-0.021862582	1.3422055	1.3962502	-0.19896731	1.3464328	1.4122224	0.13424662	1.2761351	1.4531518	-0.029266654	1.1909915	1.058511	-0.23946484	1.2360559	1.0597803	0.23237276	1.2917334	0.82346214	-0.29992185	1.4429416	0.87466106	0.23825446
422	1.684	1.7653093	0.061611071	-0.086693685	1.0365424	0.041454276	0.043687043	1.6108462	0.073982445	-0.12469443	0.91939437	0.12504751	0.087871552	1.6340904	0.098759552	-0.031251362	0.95224409	0.15368584	-0.003518289	1.5490438	0.028949733	-0.073505539	0.85319815	0.1425462	0.034358493	1.5272901	0.48504136	-0.16157807	1.2329472	0.47117598	0.14123533	1.535196	0.48089094	-0.036996248	1.2196829	0.46008161	0.015885205	1.3350653	0.85235089	-0.19801402	1.2991366	0.86732153	0.17473985	1.4003735	0.94723862	-0.13511151	1.4018173	0.95073717	0.10733961	1.2290143	0.99286414	-0.022219802	1.3479448	1.3958923	-0.19956487	1.3518338	1.4117535	0.13380179	1.2817288	1.4528387	-0.029933952	1.1973796	1.057798	-0.24012302	1.2414246	1.0591784	0.23123843	1.2984724	0.82291069	-0.30044836	1.4474757	0.87337597	0.23809095
423	1.688	1.7670355	0.057753075	-0.085639056	1.037275	0.041796784	0.043789519	1.6131541	0.073669049	-0.12528349	0.9225322	0.12858456	0.088521418	1.6359832	0.098120785	-0.03170304	0.95624743	0.15619331	-0.002617945	1.5501226	0.02973688	-0.074276098	0.85713539	0.14752666	0.034702763	1.5354682	0.48639028	-0.16178645	1.2405627	0.47004107	0.14132719	1.540924	0.48146451	-0.037682464	1.2282947	0.45836931	0.016341607	1.342168	0.85310789	-0.19866555	1.3056993	0.86608493	0.17400891	1.4066746	0.9477725	-0.13554443	1.4081867	0.95000635	0.10678983	1.2352555	0.99255933	-0.022515522	1.3537079	1.3956259	-0.20014208	1.3572041	1.411436	0.13331611	1.2872563	1.4525597	-0.030639009	1.2038163	1.0571943	-0.24077868	1.2466665	1.0587321	0.23000861	1.3052614	0.82245298	-0.30095053	1.4519173	0.87212742	0.23792266
424	1.692	1.7686812	0.053993013	-0.084637084	1.0379705	0.042139603	0.043648371	1.6153712	0.073279136	-0.12574159	0.92590294	0.13223309	0.089250888	1.6377785	0.097448256	-0.032020587	0.96051149	0.15880496	-0.0016705588	1.5510944	0.030516399	-0.075195284	0.86140328	0.15276239	0.035011818	1.5434944	0.48751458	-0.16204873	1.2483489	0.46898542	0.14150303	1.5467018	0.48192831	-0.038324532	1.2371189	0.45666026	0.016879708	1.3491153	0.85405432	-0.19936901	1.3122741	0.86491111	0.17328697	1.4129763	0.94844497	-0.1360251	1.4145138	0.94936155	0.10618866	1.241526	0.99226233	-0.022775741	1.3594853	1.3954419	-0.20068807	1.3625351	1.4112593	0.13279345	1.2926336	1.4522843	-0.031421947	1.2102933	1.0567011	-0.24142836	1.251844	1.0584342	0.2287125	1.3120939	0.82209268	-0.30142866	1.4562772	0.87092125	0.2377502
425	1.696	1.7702508	0.050516404	-0.083687899	1.0386087	0.042491784	0.043410419	1.6175755	0.072827311	-0.12595471	0.92944336	0.1360712	0.090033899	1.6394661	0.096756638	-0.032058348	0.96505986	0.16154912	-0.00065841913	1.5518742	0.031323413	-0.076356571	0.86600295	0.15827566	0.035323553	1.5513407	0.48834914	-0.1624042	1.2563043	0.46801573	0.14184289	1.552874	0.48259063	-0.038815825	1.2461613	0.45493767	0.01753554	1.3559323	0.85513887	-0.20016502	1.3188804	0.86381799	0.17255973	1.4192878	0.94922632	-0.13656534	1.4208071	0.94879069	0.10553233	1.247798	0.99194926	-0.023034925	1.3652714	1.3953254	-0.20119268	1.3678305	1.4111905	0.13225601	1.2978084	1.4519917	-0.03229939	1.2167843	1.056304	-0.24209152	1.256949	1.0582759	0.22736827	1.3189692	0.8218258	-0.30188445	1.4605695	0.86976741	0.23756706
426	1.7	1.771708	0.047553082	-0.082780099	1.0392429	0.042896564	0.043276093	1.6197542	0.072354198	-0.12585403	0.93310321	0.14016858	0.090841888	1.6409794	0.096058546	-0.031707836	0.96992447	0.16445905	0.00043263462	1.5523819	0.032156018	-0.077713608	0.87094277	0.16403943	0.035673541	1.5588923	0.48885812	-0.16284779	1.2645009	0.46706227	0.14238633	1.559503	0.48367778	-0.039130923	1.2554229	0.45319289	0.018331767	1.3626312	0.85628742	-0.20105232	1.3254967	0.86280698	0.1718078	1.4256023	0.95008084	-0.1371635	1.4270837	0.94826834	0.10482682	1.2540333	0.99160708	-0.023318973	1.371071	1.395263	-0.20165098	1.3730933	1.4111924	0.1317309	1.302852	1.4516813	-0.033191712	1.2232329	1.0559658	-0.2428313	1.2619548	1.0582538	0.22598832	1.3258961	0.82164257	-0.30232374	1.4647973	0.86867209	0.23736022
